<svg xmlns="http://www.w3.org/2000/svg" xmlns:xlink="http://www.w3.org/1999/xlink" preserveAspectRatio="xMidYMid" width="49" height="90" viewBox="0 0 49 90">
  <defs>
    <style>
      .cls-1 {
        fill: #826b60;
        fill-rule: evenodd;
      }
    </style>
  </defs>
  <path d="M48.276,4.020 L6.778,44.986 L48.276,85.952 C49.211,86.876 49.211,88.378 48.276,89.302 C47.805,89.762 47.191,89.994 46.576,89.994 L46.581,89.999 C46.405,89.999 46.237,89.938 46.064,89.900 C45.901,89.934 45.742,89.994 45.576,89.994 L45.581,89.999 C44.967,89.999 44.352,89.771 43.882,89.307 L0.685,46.663 C-0.251,45.739 -0.251,44.237 0.685,43.314 L43.882,0.670 C44.480,0.080 45.309,-0.090 46.079,0.073 C46.849,-0.090 47.678,0.080 48.276,0.670 C49.211,1.594 49.211,3.096 48.276,4.020 Z" class="cls-1"/>
</svg>
